REM DIRINDEX 1\4,1\2\5,1\2\6,1\2\7,1\3\8,1\3\9,1\3\10,1\3\11
REM DIRNAME cjc108,folder01,folder02,folder03,folder04,folder05,folder06,folder07,folder08,folder09,folder10
TITLE ""
FILE "t_k_087-096.mp3" MP3
  TRACK 01 AUDIO
    TITLE "5:cjc108_0260"
    INDEX 01 00:00:00
  TRACK 02 AUDIO
    TITLE "0:"
    INDEX 01 00:00:64
  TRACK 03 AUDIO
    TITLE "6:cjc108_0261"
    INDEX 01 00:00:72
  TRACK 04 AUDIO
    TITLE "0:"
    INDEX 01 00:03:06
  TRACK 05 AUDIO
    TITLE "7:cjc108_0262"
    INDEX 01 00:03:31
  TRACK 06 AUDIO
    TITLE "0:"
    INDEX 01 00:08:11
  TRACK 07 AUDIO
    TITLE "5:cjc108_0263"
    INDEX 01 00:08:66
  TRACK 08 AUDIO
    TITLE "0:"
    INDEX 01 00:10:06
  TRACK 09 AUDIO
    TITLE "6:cjc108_0264"
    INDEX 01 00:10:14
  TRACK 10 AUDIO
    TITLE "0:"
    INDEX 01 00:12:36
  TRACK 11 AUDIO
    TITLE "7:cjc108_0265"
    INDEX 01 00:12:50
  TRACK 12 AUDIO
    TITLE "0:"
    INDEX 01 00:17:39
  TRACK 13 AUDIO
    TITLE "5:cjc108_0266"
    INDEX 01 00:18:33
  TRACK 14 AUDIO
    TITLE "0:"
    INDEX 01 00:19:36
  TRACK 15 AUDIO
    TITLE "6:cjc108_0267"
    INDEX 01 00:19:62
  TRACK 16 AUDIO
    TITLE "0:"
    INDEX 01 00:22:15
  TRACK 17 AUDIO
    TITLE "7:cjc108_0268"
    INDEX 01 00:22:27
  TRACK 18 AUDIO
    TITLE "0:"
    INDEX 01 00:26:20
  TRACK 19 AUDIO
    TITLE "5:cjc108_0269"
    INDEX 01 00:27:06
  TRACK 20 AUDIO
    TITLE "0:"
    INDEX 01 00:28:17
  TRACK 21 AUDIO
    TITLE "6:cjc108_0270"
    INDEX 01 00:28:27
  TRACK 22 AUDIO
    TITLE "0:"
    INDEX 01 00:32:27
  TRACK 23 AUDIO
    TITLE "7:cjc108_0271"
    INDEX 01 00:32:41
  TRACK 24 AUDIO
    TITLE "0:"
    INDEX 01 00:36:52
  TRACK 25 AUDIO
    TITLE "5:cjc108_0272"
    INDEX 01 00:37:40
  TRACK 26 AUDIO
    TITLE "0:"
    INDEX 01 00:38:55
  TRACK 27 AUDIO
    TITLE "6:cjc108_0273"
    INDEX 01 00:38:57
  TRACK 28 AUDIO
    TITLE "0:"
    INDEX 01 00:41:34
  TRACK 29 AUDIO
    TITLE "7:cjc108_0274"
    INDEX 01 00:41:47
  TRACK 30 AUDIO
    TITLE "0:"
    INDEX 01 00:45:41
  TRACK 31 AUDIO
    TITLE "5:cjc108_0275"
    INDEX 01 00:46:35
  TRACK 32 AUDIO
    TITLE "0:"
    INDEX 01 00:47:32
  TRACK 33 AUDIO
    TITLE "6:cjc108_0276"
    INDEX 01 00:47:42
  TRACK 34 AUDIO
    TITLE "0:"
    INDEX 01 00:49:37
  TRACK 35 AUDIO
    TITLE "7:cjc108_0277"
    INDEX 01 00:49:49
  TRACK 36 AUDIO
    TITLE "0:"
    INDEX 01 00:54:27
  TRACK 37 AUDIO
    TITLE "5:cjc108_0278"
    INDEX 01 00:55:22
  TRACK 38 AUDIO
    TITLE "0:"
    INDEX 01 00:56:39
  TRACK 39 AUDIO
    TITLE "6:cjc108_0279"
    INDEX 01 00:56:59
  TRACK 40 AUDIO
    TITLE "0:"
    INDEX 01 01:00:51
  TRACK 41 AUDIO
    TITLE "7:cjc108_0280"
    INDEX 01 01:00:66
  TRACK 42 AUDIO
    TITLE "0:"
    INDEX 01 01:04:58
  TRACK 43 AUDIO
    TITLE "5:cjc108_0281"
    INDEX 01 01:05:42
  TRACK 44 AUDIO
    TITLE "0:"
    INDEX 01 01:06:55
  TRACK 45 AUDIO
    TITLE "6:cjc108_0282"
    INDEX 01 01:06:71
  TRACK 46 AUDIO
    TITLE "0:"
    INDEX 01 01:07:74
  TRACK 47 AUDIO
    TITLE "7:cjc108_0283"
    INDEX 01 01:08:19
  TRACK 48 AUDIO
    TITLE "0:"
    INDEX 01 01:13:57
  TRACK 49 AUDIO
    TITLE "5:cjc108_0284"
    INDEX 01 01:14:43
  TRACK 50 AUDIO
    TITLE "0:"
    INDEX 01 01:15:50
  TRACK 51 AUDIO
    TITLE "6:cjc108_0285"
    INDEX 01 01:15:58
  TRACK 52 AUDIO
    TITLE "0:"
    INDEX 01 01:18:17
  TRACK 53 AUDIO
    TITLE "7:cjc108_0286"
    INDEX 01 01:18:25
  TRACK 54 AUDIO
    TITLE "0:"
    INDEX 01 01:23:62
  TRACK 55 AUDIO
    TITLE "5:cjc108_0287"
    INDEX 01 01:24:51
  TRACK 56 AUDIO
    TITLE "0:"
    INDEX 01 01:25:64
  TRACK 57 AUDIO
    TITLE "6:cjc108_0288"
    INDEX 01 01:26:03
  TRACK 58 AUDIO
    TITLE "0:"
    INDEX 01 01:28:67
  TRACK 59 AUDIO
    TITLE "7:cjc108_0289"
    INDEX 01 01:29:03
  TRACK 60 AUDIO
    TITLE "0:"
    INDEX 01 01:33:64
